<svg xmlns="http://www.w3.org/2000/svg" width="157" height="157" viewBox="0 0 157 157">
  <g id="Grupo_138507" data-name="Grupo 138507" transform="translate(-985 -5779.553)">
    <rect id="Rectángulo_42357" data-name="Rectángulo 42357" width="157" height="157" rx="78.5" transform="translate(985 5779.553)" fill="#fff"/>
    <g id="documento" transform="translate(1010.8 5811.531)">
      <g id="Grupo_138505" data-name="Grupo 138505" transform="translate(0.2 0.2)">
        <g id="Grupo_138503" data-name="Grupo 138503" transform="translate(1.61 1.61)">
          <g id="Grupo_138498" data-name="Grupo 138498" transform="translate(24.15 3.22)">
            <path id="Trazado_198479" data-name="Trazado 198479" d="M57.593,10.46a6.447,6.447,0,0,1-4.556-1.884L50.091,5.63h-4.83A6.427,6.427,0,0,1,39.03.8H3.4V81.3H61.361V10.46Z" transform="translate(-3.4 -0.8)" fill="#e6e9ed"/>
          </g>
          <g id="Grupo_138499" data-name="Grupo 138499" transform="translate(30.59 9.66)">
            <path id="Trazado_198480" data-name="Trazado 198480" d="M4.2,1.6H29.96V20.92H4.2Z" transform="translate(-4.2 -1.6)" fill="#7fc733"/>
          </g>
          <g id="Grupo_138500" data-name="Grupo 138500" transform="translate(49.911 54.741)">
            <path id="Trazado_198481" data-name="Trazado 198481" d="M6.6,7.2H32.36V29.74H6.6Z" transform="translate(-6.6 -7.2)" fill="#f7ca2e"/>
          </g>
          <g id="Grupo_138501" data-name="Grupo 138501" transform="translate(0 61.181)">
            <path id="Trazado_198482" data-name="Trazado 198482" d="M45.481,36.98A3.243,3.243,0,0,1,48.7,40.2a3.23,3.23,0,0,1-3.22,3.22H14.713a13.011,13.011,0,0,1-5.764-1.352L2.01,38.59H.4V14.44H2.01l5.6-3.735A16.021,16.021,0,0,1,16.549,8H35.821a1.615,1.615,0,0,1,1.61,1.61,6.438,6.438,0,0,1-6.44,6.44H24.55V30.54H48.7a3.23,3.23,0,0,1,3.22,3.22,3.243,3.243,0,0,1-3.22,3.22Z" transform="translate(-0.4 -8)" fill="#f0d0b4"/>
          </g>
          <g id="Grupo_138502" data-name="Grupo 138502" transform="translate(59.571)">
            <path id="Trazado_198483" data-name="Trazado 198483" d="M44.831,6.84V29.38h-1.61l-6.939,3.478a13.011,13.011,0,0,1-5.764,1.352H30.34V13.28H26.573A6.447,6.447,0,0,1,22.017,11.4L19.07,8.45H14.24A6.427,6.427,0,0,1,8.009,3.62,5.888,5.888,0,0,1,7.8,2.01,1.615,1.615,0,0,1,9.41.4H28.682a16.021,16.021,0,0,1,8.936,2.7l5.6,3.735Z" transform="translate(-7.8 -0.4)" fill="#f0d0b4"/>
          </g>
        </g>
        <g id="Grupo_138504" data-name="Grupo 138504">
          <path id="Trazado_198484" data-name="Trazado 198484" d="M97.289,6.64l-5.2-3.465A17.646,17.646,0,0,0,82.268.2H62.991a3.223,3.223,0,0,0-3.22,3.22H24.35V61.381h-6.4a17.652,17.652,0,0,0-9.824,2.975l-5.2,3.465H.2v27.37H3.04l6.6,3.3a14.571,14.571,0,0,0,6.48,1.53H46.891a4.814,4.814,0,0,0,4.476-6.627,4.749,4.749,0,0,0,3.278-6.253H85.531V37.16A14.583,14.583,0,0,0,90.582,35.7l6.6-3.3h2.838V6.64ZM51.721,88.751a1.612,1.612,0,0,1-1.61,1.61H30.79v3.22h16.1a1.61,1.61,0,1,1,0,3.22H16.122a11.32,11.32,0,0,1-5.041-1.19L3.8,91.971H3.42V71.041h.488l6.009-4.006A14.447,14.447,0,0,1,17.954,64.6H37.231a4.836,4.836,0,0,1-4.83,4.83H25.294L22.822,71.9a8,8,0,0,1-5.693,2.359H16.3v3.22h.829a11.183,11.183,0,0,0,7.221-2.623V87.141h25.76A1.612,1.612,0,0,1,51.721,88.751Zm30.59-4.83H27.57V72.651H32.4a8.059,8.059,0,0,0,8.05-8.05,3.223,3.223,0,0,0-3.22-3.22H27.57V6.64H60.454a8.055,8.055,0,0,0,7.367,4.83h4.164l2.471,2.473A8,8,0,0,0,80.149,16.3h2.162ZM96.8,29.18h-.38l-7.279,3.64a11.3,11.3,0,0,1-3.61,1.1V13.08H80.151a4.8,4.8,0,0,1-3.416-1.414L73.318,8.25h-5.5a4.836,4.836,0,0,1-4.83-4.83H82.268A14.443,14.443,0,0,1,90.3,5.854L96.314,9.86H96.8Z" transform="translate(-0.2 -0.2)"/>
          <path id="Trazado_198485" data-name="Trazado 198485" d="M6.4,32.76H35.38V7H6.4ZM9.62,10.22H32.16V29.54H9.62Z" transform="translate(43.511 47.741)"/>
          <path id="Trazado_198486" data-name="Trazado 198486" d="M11.617,17.79,9.535,15.709,7.259,17.985l4.358,4.358L24.025,9.935,21.749,7.659Z" transform="translate(49.564 52.384)"/>
          <path id="Trazado_198487" data-name="Trazado 198487" d="M4,9.8H20.1v3.22H4Z" transform="translate(26.59 67.481)"/>
          <path id="Trazado_198488" data-name="Trazado 198488" d="M5.6,9H8.82v3.22H5.6Z" transform="translate(37.871 61.841)"/>
          <path id="Trazado_198489" data-name="Trazado 198489" d="M5.6,8.2H8.82v3.22H5.6Z" transform="translate(37.871 56.201)"/>
          <path id="Trazado_198490" data-name="Trazado 198490" d="M32.98,1.4H4V23.94H32.98ZM29.76,20.72H7.22V4.62H29.76Z" transform="translate(26.59 8.26)"/>
          <path id="Trazado_198491" data-name="Trazado 198491" d="M8,3.8H24.1V7.02H8Z" transform="translate(54.791 25.18)"/>
          <path id="Trazado_198492" data-name="Trazado 198492" d="M8,3H24.1V6.22H8Z" transform="translate(54.791 19.54)"/>
          <path id="Trazado_198493" data-name="Trazado 198493" d="M8,2.2h3.22V5.42H8Z" transform="translate(54.791 13.9)"/>
          <path id="Trazado_198494" data-name="Trazado 198494" d="M8.8,2.2h9.66V5.42H8.8Z" transform="translate(60.431 13.9)"/>
          <path id="Trazado_198495" data-name="Trazado 198495" d="M4,4.6H7.22V7.82H4Z" transform="translate(26.59 30.821)"/>
          <path id="Trazado_198496" data-name="Trazado 198496" d="M4.8,4.6H46.661V7.82H4.8Z" transform="translate(32.231 30.821)"/>
          <path id="Trazado_198497" data-name="Trazado 198497" d="M4,5.4H52.3V8.62H4Z" transform="translate(26.59 36.461)"/>
          <path id="Trazado_198498" data-name="Trazado 198498" d="M4,6.2H7.22V9.42H4Z" transform="translate(26.59 42.101)"/>
          <path id="Trazado_198499" data-name="Trazado 198499" d="M5.6,6.2H8.82V9.42H5.6Z" transform="translate(37.871 42.101)"/>
          <path id="Trazado_198500" data-name="Trazado 198500" d="M4.8,6.2H8.02V9.42H4.8Z" transform="translate(32.231 42.101)"/>
          <path id="Trazado_198501" data-name="Trazado 198501" d="M6.4,6.2H35.38V9.42H6.4Z" transform="translate(43.511 42.101)"/>
          <path id="Trazado_198502" data-name="Trazado 198502" d="M4,7H20.1v3.22H4Z" transform="translate(26.59 47.741)"/>
        </g>
      </g>
    </g>
  </g>
</svg>
