<svg xmlns="http://www.w3.org/2000/svg" xmlns:xlink="http://www.w3.org/1999/xlink" width="190" height="112" viewBox="0 0 190 112">
  <defs>
    <linearGradient id="linear-gradient" x1="0.5" x2="0.5" y2="1" gradientUnits="objectBoundingBox">
      <stop offset="0" stop-color="#f7ca2e" stop-opacity="0"/>
      <stop offset="0.091" stop-color="#f7ca2e" stop-opacity="0.129"/>
      <stop offset="0.283" stop-color="#f7ca2e" stop-opacity="0.388"/>
      <stop offset="0.465" stop-color="#f7ca2e" stop-opacity="0.612"/>
      <stop offset="0.633" stop-color="#f7ca2e" stop-opacity="0.78"/>
      <stop offset="0.784" stop-color="#f7ca2e" stop-opacity="0.902"/>
      <stop offset="0.911" stop-color="#f7ca2e" stop-opacity="0.969"/>
      <stop offset="1" stop-color="#f7ca2e"/>
    </linearGradient>
    <linearGradient id="linear-gradient-2" x1="0.5" x2="0.5" y2="1" gradientUnits="objectBoundingBox">
      <stop offset="0" stop-color="#b13e8d" stop-opacity="0"/>
      <stop offset="0.091" stop-color="#b13e8d" stop-opacity="0.129"/>
      <stop offset="0.283" stop-color="#b13e8d" stop-opacity="0.388"/>
      <stop offset="0.465" stop-color="#b13e8d" stop-opacity="0.612"/>
      <stop offset="0.633" stop-color="#b13e8d" stop-opacity="0.78"/>
      <stop offset="0.784" stop-color="#b13e8d"/>
      <stop offset="0.911" stop-color="#b13e8d" stop-opacity="0.969"/>
      <stop offset="1" stop-color="#b13e8d"/>
    </linearGradient>
    <filter id="Rectángulo_40720" x="41" y="4" width="108" height="108" filterUnits="userSpaceOnUse">
      <feOffset dy="3" input="SourceAlpha"/>
      <feGaussianBlur stdDeviation="3" result="blur"/>
      <feFlood flood-opacity="0.161"/>
      <feComposite operator="in" in2="blur"/>
      <feComposite in="SourceGraphic"/>
    </filter>
  </defs>
  <g id="Grupo_138690" data-name="Grupo 138690" transform="translate(-180 -400)">
    <g id="Grupo_136154" data-name="Grupo 136154" transform="translate(0 -1227)">
      <g id="Grupo_128321" data-name="Grupo 128321" transform="translate(0 1228)">
        <rect id="Rectángulo_40586" data-name="Rectángulo 40586" width="190" height="20" transform="translate(180 444)" fill="none"/>
        <g id="Grupo_108405" data-name="Grupo 108405" transform="translate(209.5 463)">
          <path id="Rectángulo_5242" data-name="Rectángulo 5242" d="M0,0H12a0,0,0,0,1,0,0V43.333a3,3,0,0,1-3,3H3a3,3,0,0,1-3-3V0A0,0,0,0,1,0,0Z" transform="translate(0 0)" fill="url(#linear-gradient)"/>
        </g>
        <g id="Grupo_108406" data-name="Grupo 108406" transform="translate(340 451) rotate(180)">
          <path id="Rectángulo_5242-2" data-name="Rectángulo 5242" d="M0,0H12a0,0,0,0,1,0,0V49a3,3,0,0,1-3,3H3a3,3,0,0,1-3-3V0A0,0,0,0,1,0,0Z" transform="translate(0 0)" fill="url(#linear-gradient-2)"/>
        </g>
        <g transform="matrix(1, 0, 0, 1, 180, 399)" filter="url(#Rectángulo_40720)">
          <path id="Rectángulo_40720-2" data-name="Rectángulo 40720" d="M10,0H80A10,10,0,0,1,90,10V90a0,0,0,0,1,0,0H10A10,10,0,0,1,0,80V10A10,10,0,0,1,10,0Z" transform="translate(50 10)" fill="#f6f6f6"/>
        </g>
      </g>
    </g>
    <g id="evaluacion_4_" data-name="evaluacion (4)" transform="translate(241.5 421.353)">
      <g id="Grupo_138339" data-name="Grupo 138339" transform="translate(0 0)">
        <path id="Trazado_198132" data-name="Trazado 198132" d="M45.66,23.693q-.91,0-1.8.074c.048-.6.076-1.2.076-1.8A21.969,21.969,0,1,0,10.977,40.99a.991.991,0,0,0,.992-1.715A19.987,19.987,0,1,1,41.953,21.969a20.49,20.49,0,0,1-.1,2.056A22.025,22.025,0,0,0,24.025,41.848a20.364,20.364,0,0,1-2.056.105,19.925,19.925,0,0,1-6.6-1.115.991.991,0,1,0-.654,1.87,21.907,21.907,0,0,0,7.251,1.226c.6,0,1.2-.027,1.8-.076q-.073.891-.074,1.8A21.967,21.967,0,1,0,45.66,23.693Zm0,41.954A19.986,19.986,0,1,1,65.646,45.66,20.009,20.009,0,0,1,45.66,65.646Z" transform="translate(0 0)" fill="#6836bf"/>
        <path id="Trazado_198133" data-name="Trazado 198133" d="M72.708,54.212,69.853,52.8a2.834,2.834,0,0,0-3.8,1.28l-4.844,9.774-1.82-3.044a2.84,2.84,0,0,0-3.888-.978l-2.736,1.636a2.838,2.838,0,0,0-.977,3.886l5.422,9.071a2.833,2.833,0,0,0,2.431,1.38l.112,0,3.843-.152a2.829,2.829,0,0,0,2.427-1.572l2.791-5.631a.991.991,0,1,0-1.775-.88L64.248,73.2a.849.849,0,0,1-.729.472l-3.844.152a.852.852,0,0,1-.765-.415l-5.422-9.071a.854.854,0,0,1,.293-1.169l2.735-1.635a.856.856,0,0,1,1.172.294l2.751,4.6a.991.991,0,0,0,1.738-.068l5.65-11.4a.852.852,0,0,1,1.144-.385l2.856,1.415a.853.853,0,0,1,.385,1.144l-3.426,6.911a.991.991,0,1,0,1.775.88l3.426-6.91a2.834,2.834,0,0,0-1.28-3.8Z" transform="translate(-17.45 -17.828)" fill="#6836bf"/>
        <path id="Trazado_198134" data-name="Trazado 198134" d="M19.3,35.019l2.121,2.121a3.028,3.028,0,0,0,4.278,0l2.52-2.52,2.52,2.52a3.029,3.029,0,0,0,4.278,0l2.121-2.121a3.029,3.029,0,0,0,0-4.278l-2.52-2.52,2.52-2.52a3.029,3.029,0,0,0,0-4.278L35.02,19.3a3.025,3.025,0,0,0-4.278,0l-2.52,2.52L25.7,19.3a3.029,3.029,0,0,0-4.278,0L19.3,21.423a3.029,3.029,0,0,0,0,4.278l2.52,2.52-2.52,2.52A3.029,3.029,0,0,0,19.3,35.019Zm1.4-2.877,3.22-3.22a.991.991,0,0,0,0-1.4L20.7,24.3a1.045,1.045,0,0,1,0-1.476L22.825,20.7a1.045,1.045,0,0,1,1.476,0l3.22,3.22a.991.991,0,0,0,1.4,0l3.22-3.22a1.044,1.044,0,0,1,1.476,0l2.121,2.121a1.045,1.045,0,0,1,0,1.476l-3.22,3.22a.991.991,0,0,0,0,1.4l3.22,3.22a1.045,1.045,0,0,1,0,1.476L33.619,35.74a1.045,1.045,0,0,1-1.476,0l-3.22-3.22a.991.991,0,0,0-1.4,0L24.3,35.74a1.045,1.045,0,0,1-1.476,0L20.7,33.619A1.045,1.045,0,0,1,20.7,32.142Z" transform="translate(-6.254 -6.253)" fill="#6836bf"/>
      </g>
    </g>
  </g>
</svg>
