<svg xmlns="http://www.w3.org/2000/svg" xmlns:xlink="http://www.w3.org/1999/xlink" width="88" height="88" viewBox="0 0 88 88">
  <defs>
    <filter id="Rect치ngulo_40821" x="0" y="0" width="88" height="88" filterUnits="userSpaceOnUse">
      <feOffset dy="3" input="SourceAlpha"/>
      <feGaussianBlur stdDeviation="3" result="blur"/>
      <feFlood flood-opacity="0.161"/>
      <feComposite operator="in" in2="blur"/>
      <feComposite in="SourceGraphic"/>
    </filter>
  </defs>
  <g id="Grupo_138281" data-name="Grupo 138281" transform="translate(-949.333 -188)">
    <g id="Grupo_136415" data-name="Grupo 136415" transform="translate(-37 11)">
      <g transform="matrix(1, 0, 0, 1, 986.33, 177)" filter="url(#Rect치ngulo_40821)">
        <path id="Rect치ngulo_40821-2" data-name="Rect치ngulo 40821" d="M10,0H60A10,10,0,0,1,70,10V70a0,0,0,0,1,0,0H10A10,10,0,0,1,0,60V10A10,10,0,0,1,10,0Z" transform="translate(9 6)" fill="#7fc733"/>
      </g>
    </g>
    <g id="avatar" transform="translate(972.252 204.124)">
      <path id="Trazado_198062" data-name="Trazado 198062" d="M32.894,32.7a.729.729,0,0,0,.729-.729V31.19a.729.729,0,1,0-1.458,0v.779A.729.729,0,0,0,32.894,32.7Zm0,0" transform="translate(-16.485 -15.661)" fill="#12263f"/>
      <path id="Trazado_198063" data-name="Trazado 198063" d="M52.132,32.7a.729.729,0,0,0,.729-.729V31.19a.729.729,0,1,0-1.458,0v.779A.729.729,0,0,0,52.132,32.7Zm0,0" transform="translate(-26.376 -15.661)" fill="#12263f"/>
      <path id="Trazado_198064" data-name="Trazado 198064" d="M33.768,40.809a4.624,4.624,0,1,0,9.247,0,.729.729,0,0,0-.729-.729H34.5a.729.729,0,0,0-.729.729Zm7.7.729a3.166,3.166,0,0,1-6.163,0Zm0,0" transform="translate(-17.31 -20.606)" fill="#12263f"/>
      <path id="Trazado_198065" data-name="Trazado 198065" d="M38.6,35.507,31.666,32.84,29.907,30.5a1.5,1.5,0,0,0-1.865-.451V26.968a10.836,10.836,0,0,0,3.895-8.323v-.05h.05a3.065,3.065,0,0,0,1.508-5.733V7.739A7.748,7.748,0,0,0,25.756,0H16.408A3.067,3.067,0,0,0,13.74,1.558h-.448A4.629,4.629,0,0,0,8.669,6.182v6.68a3.065,3.065,0,0,0,1.508,5.733h.05v.05a10.836,10.836,0,0,0,3.895,8.323v3.077a1.5,1.5,0,0,0-1.865.451L10.5,32.84,3.563,35.507A5.435,5.435,0,0,0,.1,40.55v8.475a.729.729,0,0,0,1.458,0V40.55a3.905,3.905,0,0,1,.25-1.37l4.349,3.261a2.4,2.4,0,0,1,.955,1.909v4.674a.729.729,0,0,0,1.458,0V44.351A3.863,3.863,0,0,0,7.03,41.275L2.564,37.925a3.926,3.926,0,0,1,1.522-1.058L10.775,34.3l4.8,4.8a2.287,2.287,0,0,0,3.234,0l1.549-1.549V49.025a.729.729,0,1,0,1.458,0V37.542l1.549,1.549a2.287,2.287,0,0,0,3.234,0l2.014-2.014a.729.729,0,0,0-1.031-1.031L25.563,38.06a.83.83,0,0,1-1.173,0l-2.179-2.179,6.46-4.522a.05.05,0,0,1,.069.011l1.505,2.007-.332.332a.729.729,0,0,0,1.031,1.031l.444-.444,6.689,2.572A3.929,3.929,0,0,1,39.6,37.925l-4.466,3.35A3.862,3.862,0,0,0,33.6,44.351v4.674a.729.729,0,0,0,1.458,0V44.351a2.4,2.4,0,0,1,.955-1.91l4.349-3.261a3.907,3.907,0,0,1,.25,1.37v8.475a.729.729,0,0,0,1.458,0V40.55A5.435,5.435,0,0,0,38.6,35.507ZM17.773,38.06a.83.83,0,0,1-1.173,0l-4.683-4.683,1.505-2.007a.05.05,0,0,1,.069-.011l6.461,4.522Zm8.811-7.02-5.5,3.852-5.5-3.852V28a10.834,10.834,0,0,0,11.006,0Zm-5.6-3a9.475,9.475,0,0,1-9.3-9.517v-.782a.754.754,0,0,0-.145-.457.73.73,0,0,0-.828-.25,1.587,1.587,0,0,1-.535.1,1.608,1.608,0,1,1,0-3.216,1.579,1.579,0,0,1,.535.1.738.738,0,0,0,.569-.035,6.88,6.88,0,0,0,3.078-3.3.729.729,0,1,0-1.353-.541,5.458,5.458,0,0,1-2.131,2.4,2.891,2.891,0,0,0-.7-.087h-.05V6.182a3.166,3.166,0,0,1,3.166-3.166h.051c0,.017,0,.033,0,.05a.729.729,0,0,0,.8.726.746.746,0,0,0,.66-.743,1.61,1.61,0,0,1,1.608-1.59h9.347a6.282,6.282,0,0,1,6.282,6.282v4.725h-.05a2.894,2.894,0,0,0-.749.1c-1.5-.664-2.187-2.58-2.377-3.219q.165-.083.329-.17a.748.748,0,0,0,.332-.985.729.729,0,0,0-1-.313,11.944,11.944,0,0,1-9.538.813A15.008,15.008,0,0,1,14.713,6.58a.729.729,0,0,0-.894,1.151A16.153,16.153,0,0,0,18.5,10.065a14.608,14.608,0,0,0,4.4.7,13.132,13.132,0,0,0,4.614-.833A6.453,6.453,0,0,0,30.664,13.9a1.428,1.428,0,0,0,.562.116h0a1.62,1.62,0,0,0,.409-.053,1.433,1.433,0,0,1,.352-.046,1.608,1.608,0,1,1,0,3.216,1.58,1.58,0,0,1-.53-.1.728.728,0,0,0-.978.685v.922a9.408,9.408,0,0,1-9.49,9.4Zm0,0" transform="translate(0 0)" fill="#12263f"/>
      <path id="Trazado_198066" data-name="Trazado 198066" d="M27.9,87.308h-2V85.7a.729.729,0,1,0-1.458,0v1.608h-2a1.51,1.51,0,0,0-1.508,1.508v3.116a1.51,1.51,0,0,0,1.508,1.508H27.9a1.51,1.51,0,0,0,1.508-1.508V88.815A1.509,1.509,0,0,0,27.9,87.308Zm.05,4.624a.05.05,0,0,1-.05.05H22.45a.05.05,0,0,1-.05-.05V88.816a.05.05,0,0,1,.05-.05H27.9a.05.05,0,0,1,.05.05Zm0,0" transform="translate(-10.716 -43.686)" fill="#12263f"/>
    </g>
  </g>
</svg>
