<svg xmlns="http://www.w3.org/2000/svg" xmlns:xlink="http://www.w3.org/1999/xlink" width="88" height="88" viewBox="0 0 88 88">
  <defs>
    <filter id="Trazado_188616" x="0" y="0" width="88" height="88" filterUnits="userSpaceOnUse">
      <feOffset dy="3" input="SourceAlpha"/>
      <feGaussianBlur stdDeviation="3" result="blur"/>
      <feFlood flood-opacity="0.161"/>
      <feComposite operator="in" in2="blur"/>
      <feComposite in="SourceGraphic"/>
    </filter>
  </defs>
  <g id="Grupo_138282" data-name="Grupo 138282" transform="translate(-1293.333 -305)">
    <g transform="matrix(1, 0, 0, 1, 1293.33, 305)" filter="url(#Trazado_188616)">
      <path id="Trazado_188616-2" data-name="Trazado 188616" d="M7.778,0H62.222A7.778,7.778,0,0,1,70,7.778V70H7.778A7.778,7.778,0,0,1,0,62.222V7.778A7.778,7.778,0,0,1,7.778,0Z" transform="translate(9 6)" fill="#f7ca18"/>
    </g>
    <g id="evaluacion_1_" data-name="evaluacion (1)" transform="translate(1312.001 320.449)">
      <g id="Grupo_138277" data-name="Grupo 138277" transform="translate(0 0)">
        <path id="Trazado_198067" data-name="Trazado 198067" d="M49.115,37.44A15.72,15.72,0,1,0,33.4,21.72,15.738,15.738,0,0,0,49.115,37.44Zm0-29.943A14.223,14.223,0,1,1,34.892,21.72,14.239,14.239,0,0,1,49.115,7.5Z" transform="translate(-16.729 -3.006)" fill="#6836bf"/>
        <path id="Trazado_198068" data-name="Trazado 198068" d="M32.386,0a18.728,18.728,0,0,0-18,23.866.749.749,0,0,0,1.44-.411,17.221,17.221,0,1,1,1.017,2.682.749.749,0,0,0-1.2-.206L12.8,28.772a.748.748,0,0,0,0,1.059l.529.529L12.18,31.51A2.243,2.243,0,0,0,9.188,34.5L1.532,42.158a5.24,5.24,0,0,0,7.411,7.411L16.6,41.912a2.242,2.242,0,0,0,2.991-2.991l1.151-1.151.529.529a.748.748,0,0,0,1.059,0L24.8,35.827A18.716,18.716,0,1,0,32.386,0ZM7.884,48.51a3.743,3.743,0,0,1-5.293-5.293l7.563-7.563,5.293,5.293Zm10.21-8.093a.749.749,0,0,1-1.059,0l-6.352-6.352a.749.749,0,1,1,1.059-1.059l6.352,6.352a.749.749,0,0,1,0,1.059Zm.529-2.647L13.33,32.477l1.059-1.059,5.293,5.293ZM21.8,36.712,14.389,29.3l1.586-1.586a18.762,18.762,0,0,0,6.3,6.752q.543.349,1.107.659Z" transform="translate(0 0)" fill="#6836bf"/>
      </g>
    </g>
  </g>
</svg>
