<svg xmlns="http://www.w3.org/2000/svg" xmlns:xlink="http://www.w3.org/1999/xlink" width="130.5" height="112" viewBox="0 0 130.5 112">
  <defs>
    <linearGradient id="linear-gradient" x1="0.5" x2="0.5" y2="1" gradientUnits="objectBoundingBox">
      <stop offset="0" stop-color="#f7ca2e" stop-opacity="0"/>
      <stop offset="0.091" stop-color="#f7ca2e" stop-opacity="0.129"/>
      <stop offset="0.283" stop-color="#f7ca2e" stop-opacity="0.388"/>
      <stop offset="0.465" stop-color="#f7ca2e" stop-opacity="0.612"/>
      <stop offset="0.633" stop-color="#f7ca2e" stop-opacity="0.78"/>
      <stop offset="0.784" stop-color="#f7ca2e" stop-opacity="0.902"/>
      <stop offset="0.911" stop-color="#f7ca2e" stop-opacity="0.969"/>
      <stop offset="1" stop-color="#f7ca2e"/>
    </linearGradient>
    <linearGradient id="linear-gradient-2" x1="0.5" x2="0.5" y2="1" gradientUnits="objectBoundingBox">
      <stop offset="0" stop-color="#b13e8d" stop-opacity="0"/>
      <stop offset="0.091" stop-color="#b13e8d" stop-opacity="0.129"/>
      <stop offset="0.283" stop-color="#b13e8d" stop-opacity="0.388"/>
      <stop offset="0.465" stop-color="#b13e8d" stop-opacity="0.612"/>
      <stop offset="0.633" stop-color="#b13e8d" stop-opacity="0.78"/>
      <stop offset="0.784" stop-color="#b13e8d"/>
      <stop offset="0.911" stop-color="#b13e8d" stop-opacity="0.969"/>
      <stop offset="1" stop-color="#b13e8d"/>
    </linearGradient>
    <filter id="Trazado_197967" x="11.5" y="4" width="108" height="108" filterUnits="userSpaceOnUse">
      <feOffset dy="3" input="SourceAlpha"/>
      <feGaussianBlur stdDeviation="3" result="blur"/>
      <feFlood flood-opacity="0.161"/>
      <feComposite operator="in" in2="blur"/>
      <feComposite in="SourceGraphic"/>
    </filter>
  </defs>
  <g id="Grupo_138429" data-name="Grupo 138429" transform="translate(-209.5 -2653)">
    <g id="Grupo_108405" data-name="Grupo 108405" transform="translate(209.5 2717)">
      <path id="Rect치ngulo_5242" data-name="Rect치ngulo 5242" d="M0,0H12a0,0,0,0,1,0,0V43.333a3,3,0,0,1-3,3H3a3,3,0,0,1-3-3V0A0,0,0,0,1,0,0Z" transform="translate(0 0)" fill="url(#linear-gradient)"/>
    </g>
    <g id="Grupo_108406" data-name="Grupo 108406" transform="translate(340 2705) rotate(180)">
      <path id="Rect치ngulo_5242-2" data-name="Rect치ngulo 5242" d="M0,0H12a0,0,0,0,1,0,0V49a3,3,0,0,1-3,3H3a3,3,0,0,1-3-3V0A0,0,0,0,1,0,0Z" transform="translate(0 0)" fill="url(#linear-gradient-2)"/>
    </g>
    <g transform="matrix(1, 0, 0, 1, 209.5, 2653)" filter="url(#Trazado_197967)">
      <path id="Trazado_197967-2" data-name="Trazado 197967" d="M10,0H80A10,10,0,0,1,90,10V90H10A10,10,0,0,1,0,80V10A10,10,0,0,1,10,0Z" transform="translate(20.5 10)" fill="#f6f6f6"/>
    </g>
    <g id="grafico" transform="translate(244.975 2676.213)">
      <g id="Grupo_138427" data-name="Grupo 138427" transform="translate(0.025 0)">
        <g id="Grupo_138426" data-name="Grupo 138426">
          <g id="Grupo_138425" data-name="Grupo 138425">
            <path id="Trazado_198348" data-name="Trazado 198348" d="M60.389,72.293V33.109A1.059,1.059,0,0,0,59.33,32.05H48.74a1.059,1.059,0,0,0-1.059,1.059V72.293H45.563V47.936A1.059,1.059,0,0,0,44.5,46.877H33.913a1.059,1.059,0,0,0-1.059,1.059V72.293H30.736V37.345a1.059,1.059,0,0,0-1.059-1.059H19.087a1.059,1.059,0,0,0-1.059,1.059V72.293H15.91V52.172a1.059,1.059,0,0,0-1.059-1.059H4.261A1.059,1.059,0,0,0,3.2,52.172V72.293H.025v2.118h63.54V72.293Zm-46.6,0H5.32V53.231h8.472Zm14.826,0H20.146V38.4h8.472Zm14.826,0H34.972v-23.3h8.472Zm14.826,0H49.8V34.168h8.472Z" transform="translate(-0.025 -10.837)" fill="#6836bf"/>
            <path id="Trazado_198349" data-name="Trazado 198349" d="M8.8,28.808a5.3,5.3,0,0,0,7.337-7.337l7.5-7.5a5.241,5.241,0,0,0,2.9.885,5.315,5.315,0,0,0,.93-.082,5.257,5.257,0,0,0,2.688-1.343l6.283,4.83a5.3,5.3,0,1,0,9.353-1.031L53.283,9.74a5.311,5.311,0,1,0-1.5-1.5l-7.494,7.494a5.3,5.3,0,0,0-6.663.672c-.02.02-.032.043-.051.062l-6.192-4.759a5.3,5.3,0,1,0-9.254.768l-7.492,7.494A5.3,5.3,0,1,0,8.8,28.808ZM56.2,2.151a3.177,3.177,0,1,1-3.177,3.177A3.177,3.177,0,0,1,56.2,2.151ZM39.124,17.909A3.177,3.177,0,1,1,43.618,22.4a3.256,3.256,0,0,1-4.492,0A3.177,3.177,0,0,1,39.124,17.909ZM23.944,7.742h0a3.157,3.157,0,0,1,2.05-1.307,3.314,3.314,0,0,1,.558-.048,3.177,3.177,0,1,1-2.609,1.355ZM9.472,22.145h0a3.177,3.177,0,1,1,4.492,4.494,3.256,3.256,0,0,1-4.492,0A3.177,3.177,0,0,1,9.472,22.145Z" transform="translate(-2.189 0)" fill="#6836bf"/>
          </g>
        </g>
      </g>
    </g>
  </g>
</svg>
