<svg xmlns="http://www.w3.org/2000/svg" width="157" height="157" viewBox="0 0 157 157">
  <g id="Grupo_138506" data-name="Grupo 138506" transform="translate(-458 -5779.553)">
    <rect id="Rectángulo_42356" data-name="Rectángulo 42356" width="157" height="157" rx="78.5" transform="translate(458 5779.553)" fill="#fff"/>
    <g id="biblioteca-en-linea" transform="translate(494 5817.8)">
      <g id="Grupo_138497" data-name="Grupo 138497">
        <path id="Trazado_198454" data-name="Trazado 198454" d="M84.981,53.76H1.5V4.893A3.393,3.393,0,0,1,4.893,1.5H81.587a3.393,3.393,0,0,1,3.393,3.393Z" transform="translate(-0.24 -0.24)" fill="#cab8e9"/>
        <path id="Trazado_198455" data-name="Trazado 198455" d="M95.824,1.5h-5.43a3.393,3.393,0,0,1,3.393,3.393V53.76h5.43V4.893A3.393,3.393,0,0,0,95.824,1.5Z" transform="translate(-14.477 -0.24)" fill="#cab8e9"/>
        <path id="Trazado_198456" data-name="Trazado 198456" d="M81.587,74.585H4.893A3.393,3.393,0,0,1,1.5,71.192V63.726H84.981v7.466A3.393,3.393,0,0,1,81.587,74.585Z" transform="translate(-0.24 -10.206)" fill="#6836bf"/>
        <path id="Trazado_198457" data-name="Trazado 198457" d="M93.788,63.726v7.466a3.393,3.393,0,0,1-3.393,3.393h5.43a3.393,3.393,0,0,0,3.393-3.393V63.726Z" transform="translate(-14.477 -10.206)" fill="#6836bf"/>
        <g id="Grupo_138492" data-name="Grupo 138492" transform="translate(25.632 64.379)">
          <path id="Trazado_198458" data-name="Trazado 198458" d="M60.861,87.851A6.787,6.787,0,0,1,58.47,82.68V76.656H37.307V82.68a6.787,6.787,0,0,1-2.391,5.171l-4.4,3.736H65.257Z" transform="translate(-30.52 -76.656)" fill="#6836bf"/>
        </g>
        <g id="Grupo_138493" data-name="Grupo 138493" transform="translate(19.246 79.311)">
          <path id="Trazado_198459" data-name="Trazado 198459" d="M69.067,99.865H24.273a1.357,1.357,0,0,1-1.357-1.357V95.792a1.357,1.357,0,0,1,1.357-1.357H69.068a1.357,1.357,0,0,1,1.357,1.357v2.715A1.357,1.357,0,0,1,69.067,99.865Z" transform="translate(-22.916 -94.435)" fill="#6836bf"/>
          <path id="Trazado_198460" data-name="Trazado 198460" d="M76.833,94.435H71.4a1.357,1.357,0,0,1,1.357,1.357v2.715A1.357,1.357,0,0,1,71.4,99.865h5.43a1.357,1.357,0,0,0,1.357-1.357V95.792A1.357,1.357,0,0,0,76.833,94.435Z" transform="translate(-30.681 -94.435)" fill="#6836bf"/>
        </g>
        <g id="Grupo_138495" data-name="Grupo 138495" transform="translate(11.78 8.047)">
          <path id="Trazado_198461" data-name="Trazado 198461" d="M18.1,9.581a4.072,4.072,0,0,0-4.072,4.072V44.2A4.072,4.072,0,0,1,18.1,40.123H43.55a1.7,1.7,0,0,0,1.7-1.7V11.278a1.7,1.7,0,0,0-1.7-1.7H18.1Z" transform="translate(-14.026 -9.581)" fill="#f7ca2e"/>
          <path id="Trazado_198462" data-name="Trazado 198462" d="M43.55,45.624H18.1a4.072,4.072,0,0,0-4.071,3.993,4.146,4.146,0,0,0,4.163,4.151H43.55a1.7,1.7,0,0,0,1.7-1.7V43.927A1.7,1.7,0,0,1,43.55,45.624Z" transform="translate(-14.026 -15.082)" fill="#fff"/>
          <path id="Trazado_198463" data-name="Trazado 198463" d="M48.209,45.624H44.815v6.448a1.7,1.7,0,0,1-1.7,1.7h5.09a1.7,1.7,0,0,0,1.7-1.7V43.927A1.7,1.7,0,0,1,48.209,45.624Z" transform="translate(-18.685 -15.082)" fill="#cab8e9"/>
          <path id="Trazado_198464" data-name="Trazado 198464" d="M18.1,9.581a4.072,4.072,0,0,0-4.072,4.072V44.2A4.072,4.072,0,0,1,18.1,40.123H43.55a1.7,1.7,0,0,0,1.7-1.7V11.278a1.7,1.7,0,0,0-1.7-1.7H18.1Z" transform="translate(-14.026 -9.581)" fill="#f7ca2e"/>
          <g id="Grupo_138494" data-name="Grupo 138494" transform="translate(24.433 0)">
            <path id="Trazado_198465" data-name="Trazado 198465" d="M48.209,9.581h-5.09a1.7,1.7,0,0,1,1.7,1.7V38.426a1.7,1.7,0,0,1-1.7,1.7h5.09a1.7,1.7,0,0,0,1.7-1.7V11.278a1.7,1.7,0,0,0-1.7-1.7Z" transform="translate(-43.119 -9.581)" fill="#f7ca2e"/>
          </g>
          <path id="Trazado_198466" data-name="Trazado 198466" d="M22.511,25.209V17.743a1.7,1.7,0,0,1,1.7-1.7H39.479a1.7,1.7,0,0,1,1.7,1.7v7.466a1.7,1.7,0,0,1-1.7,1.7H24.208A1.7,1.7,0,0,1,22.511,25.209Z" transform="translate(-15.385 -10.617)" fill="#f7ca2e"/>
        </g>
        <path id="Trazado_198467" data-name="Trazado 198467" d="M57.261,15.011V10.939a1.357,1.357,0,0,1,1.357-1.357H82.034a1.357,1.357,0,0,1,1.357,1.357v4.072a1.357,1.357,0,0,1-1.357,1.357H58.618A1.357,1.357,0,0,1,57.261,15.011Z" transform="translate(-9.17 -1.534)" fill="#b13e8d"/>
        <path id="Trazado_198468" data-name="Trazado 198468" d="M57.261,53.591V50.2a1.018,1.018,0,0,1,1.018-1.018h15.61A1.018,1.018,0,0,1,74.907,50.2v3.393a1.018,1.018,0,0,1-1.018,1.018H58.279A1.018,1.018,0,0,1,57.261,53.591Z" transform="translate(-9.17 -7.876)" fill="#7fc733"/>
        <path id="Trazado_198469" data-name="Trazado 198469" d="M76.09,49.18H71A1.018,1.018,0,0,1,72.017,50.2v3.393A1.018,1.018,0,0,1,71,54.609h5.09a1.018,1.018,0,0,0,1.018-1.018V50.2A1.018,1.018,0,0,0,76.09,49.18Z" transform="translate(-11.371 -7.876)" fill="#7fc733"/>
        <path id="Trazado_198470" data-name="Trazado 198470" d="M85.722,9.581h-5.43a1.357,1.357,0,0,1,1.357,1.357v4.072a1.357,1.357,0,0,1-1.357,1.357h5.43a1.357,1.357,0,0,0,1.357-1.357V10.939A1.357,1.357,0,0,0,85.722,9.581Z" transform="translate(-12.859 -1.534)" fill="#b13e8d"/>
        <g id="Grupo_138496" data-name="Grupo 138496">
          <path id="Trazado_198471" data-name="Trazado 198471" d="M81.348,0H16.965a1.26,1.26,0,1,0,0,2.52H81.348a2.136,2.136,0,0,1,2.133,2.133V52.26H73.767a1.26,1.26,0,1,0,0,2.52h9.714v6.206a2.136,2.136,0,0,1-2.134,2.134H4.653A2.136,2.136,0,0,1,2.52,60.986V54.78H67.888a1.26,1.26,0,1,0,0-2.52H2.52V4.653A2.136,2.136,0,0,1,4.653,2.52h6.433a1.26,1.26,0,0,0,0-2.52H4.653A4.658,4.658,0,0,0,0,4.653V60.986a4.659,4.659,0,0,0,4.653,4.653H31.159V70.4a5.518,5.518,0,0,1-1.948,4.211L25.169,78.05H20.6a2.621,2.621,0,0,0-2.617,2.619v2.714A2.62,2.62,0,0,0,20.6,86H65.4a2.62,2.62,0,0,0,2.617-2.617V80.669A2.621,2.621,0,0,0,65.4,78.05H60.831l-4.042-3.436A5.518,5.518,0,0,1,54.841,70.4V65.639H81.347A4.659,4.659,0,0,0,86,60.986V4.653A4.658,4.658,0,0,0,81.348,0ZM55.157,76.535,56.94,78.05h-11a1.26,1.26,0,1,0,0,2.52H65.4a.1.1,0,0,1,.1.1v2.714a.1.1,0,0,1-.1.1H20.6a.1.1,0,0,1-.1-.1V80.669a.1.1,0,0,1,.1-.1H40.061a1.26,1.26,0,1,0,0-2.52h-11l1.783-1.516A8.034,8.034,0,0,0,33.679,70.4V65.639H52.322V70.4a8.034,8.034,0,0,0,2.835,6.131Z"/>
          <path id="Trazado_198472" data-name="Trazado 198472" d="M23.968,27.925H39.239A2.96,2.96,0,0,0,42.2,24.969V17.5a2.96,2.96,0,0,0-2.957-2.957H23.968A2.96,2.96,0,0,0,21.011,17.5v7.466a2.96,2.96,0,0,0,2.957,2.957ZM23.531,17.5a.437.437,0,0,1,.437-.437H39.239a.437.437,0,0,1,.437.437v7.466a.437.437,0,0,1-.437.437H23.968a.437.437,0,0,1-.437-.437Z" transform="translate(-3.365 -2.33)"/>
          <path id="Trazado_198473" data-name="Trazado 198473" d="M12.526,43.955c0,.012,0,.024,0,.036a5.242,5.242,0,0,0,1.524,3.654,5.5,5.5,0,0,0,3.9,1.642H43.31a2.96,2.96,0,0,0,2.957-2.957V11.038A2.96,2.96,0,0,0,43.31,8.081H17.858a5.338,5.338,0,0,0-5.332,5.332Zm31.22,2.376a.437.437,0,0,1-.437.437H17.95a2.962,2.962,0,0,1-2.1-.887,2.742,2.742,0,0,1-.8-1.953c0-.05,0-.1.008-.148s0-.093.01-.138.013-.084.019-.126.016-.1.027-.156c.006-.028.015-.056.022-.084.016-.064.032-.128.053-.19,0-.01.007-.019.011-.029a2.835,2.835,0,0,1,2.381-1.9c.093-.009.187-.014.282-.014H43.309c.092,0,.182-.006.271-.014l.075-.008c.03,0,.061-.006.091-.01Zm-28.7-32.917A2.816,2.816,0,0,1,17.858,10.6H43.309a.437.437,0,0,1,.437.437V38.186a.437.437,0,0,1-.437.437H17.858c-.113,0-.225,0-.337.012l-.108.008q-.116.01-.231.025l-.117.015q-.138.021-.274.049c-.067.014-.133.03-.2.046l-.077.019a5.306,5.306,0,0,0-1.47.629V13.413Z" transform="translate(-2.006 -1.294)"/>
          <path id="Trazado_198474" data-name="Trazado 198474" d="M55.761,53.351a2.28,2.28,0,0,0,2.278,2.278h15.61a2.28,2.28,0,0,0,2.278-2.278V49.957a2.28,2.28,0,0,0-2.278-2.278H58.039a2.28,2.28,0,0,0-2.278,2.278Zm2.52-3.152H73.407v2.91H58.281Z" transform="translate(-8.93 -7.636)"/>
          <path id="Trazado_198475" data-name="Trazado 198475" d="M84.411,10.7a2.62,2.62,0,0,0-2.617-2.617H58.378A2.62,2.62,0,0,0,55.761,10.7v4.072a2.62,2.62,0,0,0,2.617,2.617H81.793a2.62,2.62,0,0,0,2.617-2.617Zm-2.52,4.072a.1.1,0,0,1-.1.1H58.378a.1.1,0,0,1-.1-.1V10.7a.1.1,0,0,1,.1-.1H81.793a.1.1,0,0,1,.1.1Z" transform="translate(-8.93 -1.294)"/>
          <path id="Trazado_198476" data-name="Trazado 198476" d="M63.082,24.244a1.26,1.26,0,1,0,0,2.52h21.04a1.26,1.26,0,1,0,0-2.52Z" transform="translate(-9.901 -3.883)"/>
          <path id="Trazado_198477" data-name="Trazado 198477" d="M57.021,33.229h26.13a1.26,1.26,0,1,0,0-2.52H57.021a1.26,1.26,0,1,0,0,2.52Z" transform="translate(-8.93 -4.918)"/>
          <path id="Trazado_198478" data-name="Trazado 198478" d="M57.021,39.694H74.667a1.26,1.26,0,1,0,0-2.52H57.021a1.26,1.26,0,1,0,0,2.52Z" transform="translate(-8.93 -5.954)"/>
        </g>
      </g>
    </g>
  </g>
</svg>
