<svg xmlns="http://www.w3.org/2000/svg" xmlns:xlink="http://www.w3.org/1999/xlink" width="190" height="112" viewBox="0 0 190 112">
  <defs>
    <linearGradient id="linear-gradient" x1="0.5" x2="0.5" y2="1" gradientUnits="objectBoundingBox">
      <stop offset="0" stop-color="#f7ca2e" stop-opacity="0"/>
      <stop offset="0.091" stop-color="#f7ca2e" stop-opacity="0.129"/>
      <stop offset="0.283" stop-color="#f7ca2e" stop-opacity="0.388"/>
      <stop offset="0.465" stop-color="#f7ca2e" stop-opacity="0.612"/>
      <stop offset="0.633" stop-color="#f7ca2e" stop-opacity="0.78"/>
      <stop offset="0.784" stop-color="#f7ca2e" stop-opacity="0.902"/>
      <stop offset="0.911" stop-color="#f7ca2e" stop-opacity="0.969"/>
      <stop offset="1" stop-color="#f7ca2e"/>
    </linearGradient>
    <linearGradient id="linear-gradient-2" x1="0.5" x2="0.5" y2="1" gradientUnits="objectBoundingBox">
      <stop offset="0" stop-color="#b13e8d" stop-opacity="0"/>
      <stop offset="0.091" stop-color="#b13e8d" stop-opacity="0.129"/>
      <stop offset="0.283" stop-color="#b13e8d" stop-opacity="0.388"/>
      <stop offset="0.465" stop-color="#b13e8d" stop-opacity="0.612"/>
      <stop offset="0.633" stop-color="#b13e8d" stop-opacity="0.78"/>
      <stop offset="0.784" stop-color="#b13e8d"/>
      <stop offset="0.911" stop-color="#b13e8d" stop-opacity="0.969"/>
      <stop offset="1" stop-color="#b13e8d"/>
    </linearGradient>
    <filter id="Trazado_197967" x="41" y="4" width="108" height="108" filterUnits="userSpaceOnUse">
      <feOffset dy="3" input="SourceAlpha"/>
      <feGaussianBlur stdDeviation="3" result="blur"/>
      <feFlood flood-opacity="0.161"/>
      <feComposite operator="in" in2="blur"/>
      <feComposite in="SourceGraphic"/>
    </filter>
  </defs>
  <g id="Grupo_137119" data-name="Grupo 137119" transform="translate(-180 -399)">
    <rect id="Rectángulo_40586" data-name="Rectángulo 40586" width="190" height="20" transform="translate(180 444)" fill="none"/>
    <g id="Grupo_108405" data-name="Grupo 108405" transform="translate(209.5 463)">
      <path id="Rectángulo_5242" data-name="Rectángulo 5242" d="M0,0H12a0,0,0,0,1,0,0V43.333a3,3,0,0,1-3,3H3a3,3,0,0,1-3-3V0A0,0,0,0,1,0,0Z" transform="translate(0 0)" fill="url(#linear-gradient)"/>
    </g>
    <g id="Grupo_108406" data-name="Grupo 108406" transform="translate(340 451) rotate(180)">
      <path id="Rectángulo_5242-2" data-name="Rectángulo 5242" d="M0,0H12a0,0,0,0,1,0,0V49a3,3,0,0,1-3,3H3a3,3,0,0,1-3-3V0A0,0,0,0,1,0,0Z" transform="translate(0 0)" fill="url(#linear-gradient-2)"/>
    </g>
    <g transform="matrix(1, 0, 0, 1, 180, 399)" filter="url(#Trazado_197967)">
      <path id="Trazado_197967-2" data-name="Trazado 197967" d="M10,0H80A10,10,0,0,1,90,10V90H10A10,10,0,0,1,0,80V10A10,10,0,0,1,10,0Z" transform="translate(50 10)" fill="#f6f6f6"/>
    </g>
    <g id="Grupo_137045" data-name="Grupo 137045" transform="translate(799 240.09)">
      <path id="Trazado_197981" data-name="Trazado 197981" d="M-559,245.172V182.828a4.867,4.867,0,0,1,1.58-2.628,19.672,19.672,0,0,1,2.248-1.2h47.578c.033.03.06.076.1.088,2.634.839,3.73,2.331,3.73,5.086q0,9.432,0,18.865v.705l.175.067c.16-.189.308-.39.482-.564,1.9-1.9,3.766-3.84,5.717-5.689a4.959,4.959,0,0,1,8.21,2.272c.049.169.12.332.181.5v1.641a7.959,7.959,0,0,1-2.519,3.8c-3.918,3.877-7.8,7.793-11.71,11.679a1.665,1.665,0,0,0-.549,1.3q.027,12.677.011,25.354a4.637,4.637,0,0,1-3.6,4.775,1.178,1.178,0,0,0-.229.126h-47.578a19.716,19.716,0,0,1-2.248-1.2A4.879,4.879,0,0,1-559,245.172Zm46.987-4.375V223.275c-1.307.578-2.558,1.114-3.792,1.686a1.455,1.455,0,0,1-1.824-.172,1.492,1.492,0,0,1-.139-1.833c1.113-2.468,2.242-4.93,3.3-7.423a8.288,8.288,0,0,1,2.05-3.011,1.571,1.571,0,0,0,.436-1.049q.037-11.757.019-23.515v-.717H-519.7a1.861,1.861,0,0,0-.053.227,4.254,4.254,0,0,1-4.484,4.107q-7.212.009-14.423,0a4.247,4.247,0,0,1-4.356-4.024,2.846,2.846,0,0,0-.059-.31h-7.68V240.8h.789q6.426,0,12.851,0c1,0,1.619.534,1.621,1.361s-.623,1.369-1.613,1.37q-7.417.006-14.834,0a1.4,1.4,0,0,1-1.593-1.6q0-27.924,0-55.848c0-1.114.512-1.611,1.645-1.613q4.033-.007,8.066,0h.753v-2.734h-.722q-5.058,0-10.117,0c-1.668,0-2.36.694-2.36,2.365q0,29.906,0,59.813c0,1.661.7,2.353,2.374,2.353h44.979c1.725,0,2.412-.678,2.412-2.383q0-11.177,0-22.353v-.721c-.77.347-1.435.694-2.134.945a.837.837,0,0,0-.612.96q.026,9.57.01,19.14c0,1.177-.491,1.675-1.653,1.676q-7.383.005-14.765,0c-1,0-1.618-.532-1.622-1.361s.62-1.369,1.611-1.37q5.3-.006,10.6,0Zm-10.478-59.019h-17.792c0,1.77,0,3.5,0,5.224,0,1.275.56,1.838,1.825,1.84q3.382.007,6.764,0c2.505,0,5.01.006,7.515,0a1.484,1.484,0,0,0,1.676-1.424C-522.466,185.553-522.491,183.689-522.491,181.778Zm2.778,2.691h8.523c1.579,0,1.956.383,1.956,1.988v22.959c.877-.895,1.618-1.6,2.3-2.37a1.658,1.658,0,0,0,.42-.991q.035-11.034.017-22.069a1.979,1.979,0,0,0-2.266-2.251q-5.124,0-10.249,0c-.221,0-.443.019-.7.03Zm12.232,33.182,12.125-12.127-3.03-3.052-12.138,12.143Zm14.325-14.171c.9-.789,1.7-1.595,1.325-2.921a2.109,2.109,0,0,0-1.76-1.6,2.7,2.7,0,0,0-2.679,1.365Zm-19.013,13.632-1.794,4.032,4-1.784Z" fill="#6836bf"/>
      <path id="Trazado_197982" data-name="Trazado 197982" d="M-465.3,310.467c-1.388,0-2.776.008-4.164,0a1.389,1.389,0,0,1-1.554-1.563q-.011-4.164,0-8.328a1.4,1.4,0,0,1,1.6-1.588q4.164-.009,8.328,0a1.387,1.387,0,0,1,1.555,1.562q.011,4.164,0,8.328a1.4,1.4,0,0,1-1.6,1.59C-462.52,310.473-463.908,310.467-465.3,310.467Zm2.981-2.764v-5.931h-5.931V307.7Z" transform="translate(-75.952 -103.577)" fill="#6836bf"/>
      <path id="Trazado_197983" data-name="Trazado 197983" d="M-465.233,408.979c1.365,0,2.731-.006,4.1,0a1.4,1.4,0,0,1,1.6,1.589q.01,4.164,0,8.328a1.388,1.388,0,0,1-1.555,1.563q-4.2.012-8.4,0a1.372,1.372,0,0,1-1.527-1.52q-.014-4.232,0-8.464a1.365,1.365,0,0,1,1.484-1.492C-468.1,408.969-466.667,408.979-465.233,408.979Zm2.923,8.717v-5.939h-5.927V417.7Z" transform="translate(-75.946 -198.534)" fill="#6836bf"/>
      <path id="Trazado_197984" data-name="Trazado 197984" d="M-459.535,524.756c0,1.365.006,2.73,0,4.1a1.4,1.4,0,0,1-1.58,1.607q-4.164.011-8.328,0a1.387,1.387,0,0,1-1.571-1.546q-.013-4.2,0-8.4a1.373,1.373,0,0,1,1.51-1.536q4.232-.015,8.464,0a1.378,1.378,0,0,1,1.5,1.543C-459.528,521.934-459.536,523.345-459.535,524.756Zm-8.719,2.923h5.931v-5.931h-5.931Z" transform="translate(-75.949 -293.492)" fill="#6836bf"/>
      <path id="Trazado_197985" data-name="Trazado 197985" d="M-336.8,532.861c-.632-.587-1.208-1.1-1.758-1.637-.932-.912-1.074-1.706-.447-2.349.652-.669,1.441-.53,2.4.441.526.533,1.032,1.087,1.677,1.768.721-.765,1.352-1.471,2.024-2.136a1.367,1.367,0,0,1,2.1.016,1.355,1.355,0,0,1-.173,1.907c-.652.663-1.341,1.29-2.117,2.031.734.705,1.4,1.319,2.034,1.959a1.386,1.386,0,0,1,.155,2.107,1.418,1.418,0,0,1-2.11-.2c-.18-.175-.36-.349-.531-.532-.432-.463-.859-.93-1.386-1.5-.771.806-1.426,1.528-2.123,2.207a1.326,1.326,0,0,1-1.692.2,1.25,1.25,0,0,1-.578-1.475,1.991,1.991,0,0,1,.5-.791C-338.219,534.236-337.575,533.625-336.8,532.861Z" transform="translate(-189.589 -301.684)" fill="#6836bf"/>
      <path id="Trazado_197986" data-name="Trazado 197986" d="M-346.2,314.182c1.686-1.7,3.271-3.291,4.858-4.885a5.164,5.164,0,0,1,.547-.512,1.361,1.361,0,0,1,1.7.063,1.333,1.333,0,0,1,.254,1.731,3.013,3.013,0,0,1-.439.518q-2.819,2.827-5.646,5.648a1.472,1.472,0,0,1-2.451.015q-1.307-1.3-2.607-2.605a1.4,1.4,0,0,1-.187-2.107,1.382,1.382,0,0,1,2.1.162C-347.448,312.833-346.857,313.489-346.2,314.182Z" transform="translate(-179.935 -111.81)" fill="#6836bf"/>
      <path id="Trazado_197987" data-name="Trazado 197987" d="M-346.2,424.139c1.539-1.545,3-3.01,4.456-4.473.289-.29.568-.593.882-.854a1.339,1.339,0,0,1,1.8.046,1.346,1.346,0,0,1,.151,1.8,3.333,3.333,0,0,1-.366.4q-2.822,2.825-5.647,5.647c-.909.906-1.582.9-2.5-.015-.87-.867-1.746-1.729-2.606-2.606a1.386,1.386,0,0,1-.158-2.057,1.381,1.381,0,0,1,2.1.143C-347.46,422.8-346.862,423.449-346.2,424.139Z" transform="translate(-179.927 -206.744)" fill="#6836bf"/>
      <path id="Trazado_197988" data-name="Trazado 197988" d="M-364.237,632.4a1.379,1.379,0,0,1-1.4,1.36,1.379,1.379,0,0,1-1.325-1.365,1.377,1.377,0,0,1,1.4-1.359A1.379,1.379,0,0,1-364.237,632.4Z" transform="translate(-165.784 -390.231)" fill="#6836bf"/>
    </g>
  </g>
</svg>
