<svg xmlns="http://www.w3.org/2000/svg" width="110" height="110" viewBox="0 0 110 110">
  <g id="Grupo_138735" data-name="Grupo 138735" transform="translate(-395 -2849.59)">
    <g id="Grupo_136585" data-name="Grupo 136585" transform="translate(0 -6684.41)">
      <circle id="Elipse_5375" data-name="Elipse 5375" cx="55" cy="55" r="55" transform="translate(395 9534)" fill="#b13e8d"/>
    </g>
    <g id="anual" transform="translate(420.922 2873.928)">
      <g id="Grupo_138651" data-name="Grupo 138651" transform="translate(0 3.665)">
        <g id="Grupo_138650" data-name="Grupo 138650">
          <path id="Trazado_198694" data-name="Trazado 198694" d="M55.1,7.829H53.993V6.723a3.057,3.057,0,1,0-6.115,0V7.829H39.421V6.723a3.057,3.057,0,1,0-6.115,0V7.829H24.85V6.723a3.057,3.057,0,1,0-6.115,0V7.829H10.278V6.723a3.057,3.057,0,1,0-6.115,0V7.829H3.058A3.061,3.061,0,0,0,0,10.886V54.6a3.061,3.061,0,0,0,3.057,3.057H55.1A3.061,3.061,0,0,0,58.156,54.6V10.886A3.061,3.061,0,0,0,55.1,7.829ZM49.83,8.81s0,0,0-.005,0,0,0-.005V6.723a1.106,1.106,0,1,1,2.212,0v4.163a1.106,1.106,0,1,1-2.212,0ZM35.258,6.723a1.106,1.106,0,1,1,2.212,0v4.163a1.106,1.106,0,1,1-2.212,0Zm-14.572,0a1.106,1.106,0,1,1,2.212,0V8.8h0v2.08a1.106,1.106,0,1,1-2.212,0Zm-14.572,0a1.106,1.106,0,0,1,2.212,0V8.8h0v2.08a1.106,1.106,0,0,1-2.212,0ZM56.2,16.155H53.018a.976.976,0,0,0,0,1.952H56.2V54.6A1.107,1.107,0,0,1,55.1,55.707H3.057A1.107,1.107,0,0,1,1.952,54.6V18.107H3.057a.976.976,0,0,0,0-1.952H1.952V10.886A1.107,1.107,0,0,1,3.057,9.78H4.163v1.106a3.057,3.057,0,1,0,6.115,0V9.78h8.457v1.106a3.057,3.057,0,1,0,6.115,0V9.78h8.457v1.106a3.057,3.057,0,1,0,6.115,0V9.78h8.457v1.106a3.057,3.057,0,1,0,6.115,0V9.78H55.1A1.107,1.107,0,0,1,56.2,10.886v5.269Z" transform="translate(0 -3.665)" fill="#fff"/>
        </g>
      </g>
      <g id="Grupo_138653" data-name="Grupo 138653" transform="translate(45.796 16.155)">
        <g id="Grupo_138652" data-name="Grupo 138652">
          <path id="Trazado_198695" data-name="Trazado 198695" d="M83.694,25.657H81.613a.976.976,0,0,0,0,1.952h2.081a.976.976,0,1,0,0-1.952Z" transform="translate(-80.637 -25.657)" fill="#fff"/>
        </g>
      </g>
      <g id="Grupo_138655" data-name="Grupo 138655" transform="translate(6.245 16.155)">
        <g id="Grupo_138654" data-name="Grupo 138654">
          <path id="Trazado_198696" data-name="Trazado 198696" d="M47.36,25.657H11.972a.976.976,0,0,0,0,1.952H47.36a.976.976,0,1,0,0-1.952Z" transform="translate(-10.996 -25.657)" fill="#fff"/>
        </g>
      </g>
      <g id="Grupo_138657" data-name="Grupo 138657" transform="translate(5.204 22.4)">
        <g id="Grupo_138656" data-name="Grupo 138656">
          <path id="Trazado_198697" data-name="Trazado 198697" d="M17.425,36.653H11.18A2.019,2.019,0,0,0,9.163,38.67v4.163A2.019,2.019,0,0,0,11.18,44.85h6.245a2.019,2.019,0,0,0,2.017-2.017V38.67A2.019,2.019,0,0,0,17.425,36.653Zm.065,6.18a.065.065,0,0,1-.065.065H11.18a.065.065,0,0,1-.065-.065V38.67a.065.065,0,0,1,.065-.065h6.245a.065.065,0,0,1,.065.065Z" transform="translate(-9.163 -36.653)" fill="#fff"/>
        </g>
      </g>
      <g id="Grupo_138659" data-name="Grupo 138659" transform="translate(17.694 22.4)">
        <g id="Grupo_138658" data-name="Grupo 138658">
          <path id="Trazado_198698" data-name="Trazado 198698" d="M39.417,36.653H33.172a2.019,2.019,0,0,0-2.017,2.017v4.163a2.019,2.019,0,0,0,2.017,2.017h6.245a2.019,2.019,0,0,0,2.017-2.017V38.67A2.019,2.019,0,0,0,39.417,36.653Zm.065,6.18a.065.065,0,0,1-.065.065H33.172a.065.065,0,0,1-.065-.065V38.67a.065.065,0,0,1,.065-.065h6.245a.065.065,0,0,1,.065.065Z" transform="translate(-31.155 -36.653)" fill="#fff"/>
        </g>
      </g>
      <g id="Grupo_138661" data-name="Grupo 138661" transform="translate(30.184 22.4)">
        <g id="Grupo_138660" data-name="Grupo 138660">
          <path id="Trazado_198699" data-name="Trazado 198699" d="M61.409,36.653H55.164a2.019,2.019,0,0,0-2.017,2.017v4.163a2.019,2.019,0,0,0,2.017,2.017h6.245a2.019,2.019,0,0,0,2.017-2.017V38.67A2.019,2.019,0,0,0,61.409,36.653Zm.065,6.18a.065.065,0,0,1-.065.065H55.164a.065.065,0,0,1-.065-.065V38.67a.065.065,0,0,1,.065-.065h6.245a.065.065,0,0,1,.065.065Z" transform="translate(-53.147 -36.653)" fill="#fff"/>
        </g>
      </g>
      <g id="Grupo_138663" data-name="Grupo 138663" transform="translate(42.674 22.4)">
        <g id="Grupo_138662" data-name="Grupo 138662">
          <path id="Trazado_198700" data-name="Trazado 198700" d="M83.4,36.653H77.156a2.019,2.019,0,0,0-2.017,2.017v4.163a2.019,2.019,0,0,0,2.017,2.017H83.4a2.019,2.019,0,0,0,2.017-2.017V38.67A2.019,2.019,0,0,0,83.4,36.653Zm.065,6.18a.065.065,0,0,1-.065.065H77.156a.065.065,0,0,1-.065-.065V38.67a.065.065,0,0,1,.065-.065H83.4a.065.065,0,0,1,.065.065Z" transform="translate(-75.139 -36.653)" fill="#fff"/>
        </g>
      </g>
      <g id="Grupo_138665" data-name="Grupo 138665" transform="translate(5.204 32.808)">
        <g id="Grupo_138664" data-name="Grupo 138664" transform="translate(0 0)">
          <path id="Trazado_198701" data-name="Trazado 198701" d="M17.425,54.98H11.18A2.019,2.019,0,0,0,9.163,57V61.16a2.019,2.019,0,0,0,2.017,2.017h6.245a2.019,2.019,0,0,0,2.017-2.017V57A2.019,2.019,0,0,0,17.425,54.98Zm.065,6.18a.065.065,0,0,1-.065.065H11.18a.065.065,0,0,1-.065-.065V57a.065.065,0,0,1,.065-.065h6.245A.065.065,0,0,1,17.49,57Z" transform="translate(-9.163 -54.98)" fill="#fff"/>
        </g>
      </g>
      <g id="Grupo_138667" data-name="Grupo 138667" transform="translate(17.694 32.808)">
        <g id="Grupo_138666" data-name="Grupo 138666" transform="translate(0 0)">
          <path id="Trazado_198702" data-name="Trazado 198702" d="M39.417,54.98H33.172A2.019,2.019,0,0,0,31.155,57V61.16a2.019,2.019,0,0,0,2.017,2.017h6.245a2.019,2.019,0,0,0,2.017-2.017V57A2.019,2.019,0,0,0,39.417,54.98Zm.065,6.18a.065.065,0,0,1-.065.065H33.172a.065.065,0,0,1-.065-.065V57a.065.065,0,0,1,.065-.065h6.245a.065.065,0,0,1,.065.065Z" transform="translate(-31.155 -54.98)" fill="#fff"/>
        </g>
      </g>
      <g id="Grupo_138669" data-name="Grupo 138669" transform="translate(30.184 32.808)">
        <g id="Grupo_138668" data-name="Grupo 138668" transform="translate(0 0)">
          <path id="Trazado_198703" data-name="Trazado 198703" d="M61.409,54.98H55.164A2.019,2.019,0,0,0,53.147,57V61.16a2.019,2.019,0,0,0,2.017,2.017h6.245a2.019,2.019,0,0,0,2.017-2.017V57A2.019,2.019,0,0,0,61.409,54.98Zm.065,6.18a.065.065,0,0,1-.065.065H55.164a.065.065,0,0,1-.065-.065V57a.065.065,0,0,1,.065-.065h6.245a.065.065,0,0,1,.065.065Z" transform="translate(-53.147 -54.98)" fill="#fff"/>
        </g>
      </g>
      <g id="Grupo_138671" data-name="Grupo 138671" transform="translate(42.674 32.808)">
        <g id="Grupo_138670" data-name="Grupo 138670" transform="translate(0 0)">
          <path id="Trazado_198704" data-name="Trazado 198704" d="M83.4,54.98H77.156A2.019,2.019,0,0,0,75.139,57V61.16a2.019,2.019,0,0,0,2.017,2.017H83.4a2.019,2.019,0,0,0,2.017-2.017V57A2.019,2.019,0,0,0,83.4,54.98Zm.065,6.18a.065.065,0,0,1-.065.065H77.156a.065.065,0,0,1-.065-.065V57a.065.065,0,0,1,.065-.065H83.4a.065.065,0,0,1,.065.065Z" transform="translate(-75.139 -54.98)" fill="#fff"/>
        </g>
      </g>
      <g id="Grupo_138673" data-name="Grupo 138673" transform="translate(5.204 43.217)">
        <g id="Grupo_138672" data-name="Grupo 138672">
          <path id="Trazado_198705" data-name="Trazado 198705" d="M17.425,73.306H11.18a2.019,2.019,0,0,0-2.017,2.017v4.163A2.019,2.019,0,0,0,11.18,81.5h6.245a2.019,2.019,0,0,0,2.017-2.017V75.323A2.019,2.019,0,0,0,17.425,73.306Zm.065,6.18a.065.065,0,0,1-.065.065H11.18a.065.065,0,0,1-.065-.065V75.323a.065.065,0,0,1,.065-.065h6.245a.065.065,0,0,1,.065.065Z" transform="translate(-9.163 -73.306)" fill="#fff"/>
        </g>
      </g>
      <g id="Grupo_138675" data-name="Grupo 138675" transform="translate(17.694 43.217)">
        <g id="Grupo_138674" data-name="Grupo 138674">
          <path id="Trazado_198706" data-name="Trazado 198706" d="M39.417,73.306H33.172a2.019,2.019,0,0,0-2.017,2.017v4.163A2.019,2.019,0,0,0,33.172,81.5h6.245a2.019,2.019,0,0,0,2.017-2.017V75.323A2.019,2.019,0,0,0,39.417,73.306Zm.065,6.18a.065.065,0,0,1-.065.065H33.172a.065.065,0,0,1-.065-.065V75.323a.065.065,0,0,1,.065-.065h6.245a.065.065,0,0,1,.065.065Z" transform="translate(-31.155 -73.306)" fill="#fff"/>
        </g>
      </g>
      <g id="Grupo_138677" data-name="Grupo 138677" transform="translate(30.184 43.217)">
        <g id="Grupo_138676" data-name="Grupo 138676">
          <path id="Trazado_198707" data-name="Trazado 198707" d="M61.409,73.306H55.164a2.019,2.019,0,0,0-2.017,2.017v4.163A2.019,2.019,0,0,0,55.164,81.5h6.245a2.019,2.019,0,0,0,2.017-2.017V75.323A2.019,2.019,0,0,0,61.409,73.306Zm.065,6.18a.065.065,0,0,1-.065.065H55.164a.065.065,0,0,1-.065-.065V75.323a.065.065,0,0,1,.065-.065h6.245a.065.065,0,0,1,.065.065Z" transform="translate(-53.147 -73.306)" fill="#fff"/>
        </g>
      </g>
      <g id="Grupo_138679" data-name="Grupo 138679" transform="translate(42.674 43.217)">
        <g id="Grupo_138678" data-name="Grupo 138678">
          <path id="Trazado_198708" data-name="Trazado 198708" d="M83.4,73.306H77.156a2.019,2.019,0,0,0-2.017,2.017v4.163A2.019,2.019,0,0,0,77.156,81.5H83.4a2.019,2.019,0,0,0,2.017-2.017V75.323A2.019,2.019,0,0,0,83.4,73.306Zm.065,6.18a.065.065,0,0,1-.065.065H77.156a.065.065,0,0,1-.065-.065V75.323a.065.065,0,0,1,.065-.065H83.4a.065.065,0,0,1,.065.065Z" transform="translate(-75.139 -73.306)" fill="#fff"/>
        </g>
      </g>
    </g>
  </g>
</svg>
