<svg xmlns="http://www.w3.org/2000/svg" xmlns:xlink="http://www.w3.org/1999/xlink" width="190" height="112" viewBox="0 0 190 112">
  <defs>
    <linearGradient id="linear-gradient" x1="0.5" x2="0.5" y2="1" gradientUnits="objectBoundingBox">
      <stop offset="0" stop-color="#f7ca2e" stop-opacity="0"/>
      <stop offset="0.091" stop-color="#f7ca2e" stop-opacity="0.129"/>
      <stop offset="0.283" stop-color="#f7ca2e" stop-opacity="0.388"/>
      <stop offset="0.465" stop-color="#f7ca2e" stop-opacity="0.612"/>
      <stop offset="0.633" stop-color="#f7ca2e" stop-opacity="0.78"/>
      <stop offset="0.784" stop-color="#f7ca2e" stop-opacity="0.902"/>
      <stop offset="0.911" stop-color="#f7ca2e" stop-opacity="0.969"/>
      <stop offset="1" stop-color="#f7ca2e"/>
    </linearGradient>
    <linearGradient id="linear-gradient-2" x1="0.5" x2="0.5" y2="1" gradientUnits="objectBoundingBox">
      <stop offset="0" stop-color="#b13e8d" stop-opacity="0"/>
      <stop offset="0.091" stop-color="#b13e8d" stop-opacity="0.129"/>
      <stop offset="0.283" stop-color="#b13e8d" stop-opacity="0.388"/>
      <stop offset="0.465" stop-color="#b13e8d" stop-opacity="0.612"/>
      <stop offset="0.633" stop-color="#b13e8d" stop-opacity="0.78"/>
      <stop offset="0.784" stop-color="#b13e8d"/>
      <stop offset="0.911" stop-color="#b13e8d" stop-opacity="0.969"/>
      <stop offset="1" stop-color="#b13e8d"/>
    </linearGradient>
    <filter id="Rectángulo_40720" x="41" y="4" width="108" height="108" filterUnits="userSpaceOnUse">
      <feOffset dy="3" input="SourceAlpha"/>
      <feGaussianBlur stdDeviation="3" result="blur"/>
      <feFlood flood-opacity="0.161"/>
      <feComposite operator="in" in2="blur"/>
      <feComposite in="SourceGraphic"/>
    </filter>
  </defs>
  <g id="Grupo_138684" data-name="Grupo 138684" transform="translate(-180 -395)">
    <g id="Grupo_138741" data-name="Grupo 138741">
      <g id="Grupo_128321" data-name="Grupo 128321" transform="translate(0 -4)">
        <rect id="Rectángulo_40586" data-name="Rectángulo 40586" width="190" height="20" transform="translate(180 444)" fill="none"/>
        <g id="Grupo_108405" data-name="Grupo 108405" transform="translate(209.5 463)">
          <path id="Rectángulo_5242" data-name="Rectángulo 5242" d="M0,0H12a0,0,0,0,1,0,0V43.333a3,3,0,0,1-3,3H3a3,3,0,0,1-3-3V0A0,0,0,0,1,0,0Z" transform="translate(0 0)" fill="url(#linear-gradient)"/>
        </g>
        <g id="Grupo_108406" data-name="Grupo 108406" transform="translate(340 451) rotate(180)">
          <path id="Rectángulo_5242-2" data-name="Rectángulo 5242" d="M0,0H12a0,0,0,0,1,0,0V49a3,3,0,0,1-3,3H3a3,3,0,0,1-3-3V0A0,0,0,0,1,0,0Z" transform="translate(0 0)" fill="url(#linear-gradient-2)"/>
        </g>
        <g transform="matrix(1, 0, 0, 1, 180, 399)" filter="url(#Rectángulo_40720)">
          <path id="Rectángulo_40720-2" data-name="Rectángulo 40720" d="M10,0H80A10,10,0,0,1,90,10V90a0,0,0,0,1,0,0H10A10,10,0,0,1,0,80V10A10,10,0,0,1,10,0Z" transform="translate(50 10)" fill="#f6f6f6"/>
        </g>
      </g>
      <g id="control-de-calidad" transform="translate(242 417)">
        <g id="Grupo_138683" data-name="Grupo 138683" transform="translate(0 0)">
          <g id="Grupo_138682" data-name="Grupo 138682">
            <path id="Trazado_198709" data-name="Trazado 198709" d="M69.418,66.567a.964.964,0,0,0,.964-.964V58a.965.965,0,0,0-.964-.964H67.793a.964.964,0,1,0,0,1.929h.661V65.6A.965.965,0,0,0,69.418,66.567Z" transform="translate(-23.755 -20.274)" fill="#6836bf"/>
            <path id="Trazado_198710" data-name="Trazado 198710" d="M32.111,64.876a.964.964,0,0,0,1.154,1.545c.064-.047.125-.1.185-.15,1.8-1.521,3.558-4.507,2.782-6.939a3.107,3.107,0,0,0-.769-1.236,3.162,3.162,0,1,0-2.243,5.391c.041,0,.082,0,.123,0A6.3,6.3,0,0,1,32.111,64.876Zm1.109-3.317a1.234,1.234,0,1,1,1.234-1.234A1.235,1.235,0,0,1,33.22,61.558Z" transform="translate(-10.684 -20.319)" fill="#6836bf"/>
            <path id="Trazado_198711" data-name="Trazado 198711" d="M42.212,59.716v3.516a3.163,3.163,0,1,0,6.326,0V59.716a3.163,3.163,0,1,0-6.326,0Zm4.4,0v3.516a1.234,1.234,0,1,1-2.468,0V59.716a1.234,1.234,0,1,1,2.468,0Z" transform="translate(-15.005 -20.103)" fill="#6836bf"/>
            <path id="Trazado_198712" data-name="Trazado 198712" d="M54.5,59.716v3.516a3.163,3.163,0,1,0,6.326,0V59.716a3.163,3.163,0,1,0-6.326,0Zm4.4,0v3.516a1.234,1.234,0,1,1-2.468,0V59.716a1.234,1.234,0,1,1,2.468,0Z" transform="translate(-19.371 -20.103)" fill="#6836bf"/>
            <path id="Trazado_198713" data-name="Trazado 198713" d="M62.561,39.538a7.934,7.934,0,0,0,0-13.076,2.049,2.049,0,0,1-.691-2.58,7.934,7.934,0,0,0-6.538-11.324,2.049,2.049,0,0,1-1.889-1.889c-.011-.145-.027-.293-.047-.442a.965.965,0,0,0-1.912.259c.015.113.027.226.036.335a3.97,3.97,0,0,0,3.659,3.659,6,6,0,0,1,4.949,8.572,3.97,3.97,0,0,0,1.339,5,6,6,0,0,1,0,9.9,3.97,3.97,0,0,0-1.339,5,6,6,0,0,1-4.949,8.572,3.97,3.97,0,0,0-3.659,3.659,6,6,0,0,1-8.572,4.949,3.97,3.97,0,0,0-5,1.339,6,6,0,0,1-9.9,0,3.97,3.97,0,0,0-5-1.339,6,6,0,0,1-8.572-4.949,3.97,3.97,0,0,0-3.659-3.659,6,6,0,0,1-4.949-8.572,3.97,3.97,0,0,0-1.339-5,6,6,0,0,1,0-9.9,3.97,3.97,0,0,0,1.339-5,6,6,0,0,1,4.949-8.572,3.97,3.97,0,0,0,3.659-3.659,6,6,0,0,1,8.572-4.949,3.97,3.97,0,0,0,5-1.339,6,6,0,0,1,9.9,0,3.97,3.97,0,0,0,5,1.339,6.014,6.014,0,0,1,6.919,1.26A.965.965,0,0,0,51.258,5.8a7.943,7.943,0,0,0-9.14-1.666,2.049,2.049,0,0,1-2.58-.691,7.934,7.934,0,0,0-13.076,0,2.05,2.05,0,0,1-2.58.691,7.934,7.934,0,0,0-11.324,6.538,2.049,2.049,0,0,1-1.889,1.889A7.934,7.934,0,0,0,4.131,23.882a2.05,2.05,0,0,1-.691,2.58,7.934,7.934,0,0,0,0,13.076,2.049,2.049,0,0,1,.691,2.58,7.934,7.934,0,0,0,6.538,11.324,2.049,2.049,0,0,1,1.889,1.889A7.934,7.934,0,0,0,23.882,61.87a2.05,2.05,0,0,1,2.58.691,7.934,7.934,0,0,0,13.076,0,2.05,2.05,0,0,1,2.58-.691,7.934,7.934,0,0,0,11.324-6.538,2.049,2.049,0,0,1,1.889-1.889A7.934,7.934,0,0,0,61.87,42.119a2.05,2.05,0,0,1,.691-2.58Z" transform="translate(0 0)" fill="#6836bf"/>
            <path id="Trazado_198714" data-name="Trazado 198714" d="M17.517,46.188a.965.965,0,0,0-.509,1.266A23.16,23.16,0,1,0,15.621,43a.965.965,0,0,0,1.89-.385,21.293,21.293,0,1,1,1.272,4.08.965.965,0,0,0-1.266-.509Z" transform="translate(-5.386 -5.37)" fill="#6836bf"/>
            <path id="Trazado_198715" data-name="Trazado 198715" d="M33.35,41.184V31.449a.965.965,0,0,0-1.929,0v9.735a.965.965,0,0,0,1.929,0Z" transform="translate(-11.169 -10.836)" fill="#6836bf"/>
            <path id="Trazado_198716" data-name="Trazado 198716" d="M42.211,40.219a3.645,3.645,0,0,1-2.678-1.126.965.965,0,0,0-1.429,1.3,5.6,5.6,0,0,0,4.107,1.76,3.812,3.812,0,0,0,3.848-2.9c.224-1.257-.359-2.9-2.669-3.755-1.237-.456-2.385-.954-2.693-1.089a.921.921,0,0,1-.359-.888,1.254,1.254,0,0,1,.951-.986,3.5,3.5,0,0,1,2.912.666.965.965,0,0,0,1.237-1.48,5.407,5.407,0,0,0-4.706-1.033,3.175,3.175,0,0,0-2.3,2.559A2.844,2.844,0,0,0,39.7,36.052a.966.966,0,0,0,.134.073c.056.025,1.389.618,2.891,1.173,1.028.379,1.552.965,1.438,1.606A1.9,1.9,0,0,1,42.211,40.219Z" transform="translate(-13.456 -10.836)" fill="#6836bf"/>
            <path id="Trazado_198717" data-name="Trazado 198717" d="M64.546,36.316a5.832,5.832,0,1,0-5.832,5.832A5.839,5.839,0,0,0,64.546,36.316Zm-9.735,0a3.9,3.9,0,1,1,3.9,3.9A3.907,3.907,0,0,1,54.811,36.316Z" transform="translate(-18.797 -10.836)" fill="#6836bf"/>
            <path id="Trazado_198718" data-name="Trazado 198718" d="M24.315,51.958a.964.964,0,0,0,.964.964H58.007a.964.964,0,1,0,0-1.929H25.28A.965.965,0,0,0,24.315,51.958Z" transform="translate(-8.643 -18.126)" fill="#6836bf"/>
          </g>
        </g>
      </g>
    </g>
  </g>
</svg>
